<svg width="81" height="21" viewBox="0 0 81 21" fill="none" xmlns="http://www.w3.org/2000/svg">
<path d="M6.19405 16.6411C5.39283 16.6411 4.66865 16.4746 4.02151 16.1416C3.37437 15.8086 2.8582 15.3546 2.473 14.7795C2.08779 14.2043 1.87979 13.5611 1.84897 12.8497V8.94486C1.87979 8.23351 2.08779 7.59784 2.473 7.03784C2.87361 6.4627 3.39748 6.01622 4.04462 5.69838C4.69176 5.38054 5.40823 5.22162 6.19405 5.22162C7.22639 5.22162 8.15087 5.47135 8.9675 5.97081C9.78413 6.47027 10.4236 7.15135 10.8858 8.01405C11.3635 8.87676 11.6023 9.85297 11.6023 10.9427C11.6023 12.0173 11.3635 12.9859 10.8858 13.8486C10.4236 14.7114 9.78413 15.3924 8.9675 15.8919C8.15087 16.3914 7.22639 16.6411 6.19405 16.6411ZM5.68558 13.8941C6.24027 13.8941 6.72562 13.773 7.14164 13.5308C7.57307 13.2735 7.90434 12.9254 8.13546 12.4865C8.38199 12.0324 8.50526 11.5103 8.50526 10.92C8.50526 10.3449 8.38199 9.83784 8.13546 9.39892C7.90434 8.94487 7.57307 8.59676 7.14164 8.35459C6.71022 8.0973 6.21716 7.96865 5.66247 7.96865C5.10778 7.96865 4.61472 8.0973 4.18329 8.35459C3.76727 8.59676 3.436 8.94487 3.18947 9.39892C2.95835 9.83784 2.84279 10.3449 2.84279 10.92C2.84279 11.5103 2.95835 12.0324 3.18947 12.4865C3.436 12.9254 3.77498 13.2735 4.2064 13.5308C4.63783 13.773 5.13089 13.8941 5.68558 13.8941ZM0 16.4141V0H3.02769V8.15027L2.51922 10.7838L3.00457 13.4627V16.4141H0Z" fill="#3E885B"/>
<path d="M12.5473 16.4141V5.44865H15.5981V16.4141H12.5473Z" fill="#3E885B"/>
<path d="M21.9551 16.6411C20.9227 16.6411 19.9982 16.3914 19.1816 15.8919C18.365 15.3924 17.7178 14.7114 17.2402 13.8486C16.7779 12.9859 16.5468 12.0173 16.5468 10.9427C16.5468 9.85297 16.7779 8.87676 17.2402 8.01405C17.7178 7.15135 18.3573 6.47027 19.1585 5.97081C19.9751 5.47135 20.9073 5.22162 21.9551 5.22162C22.7563 5.22162 23.4728 5.38054 24.1045 5.69838C24.7516 6.01622 25.2678 6.4627 25.653 7.03784C26.0536 7.59784 26.2693 8.23351 26.3001 8.94486V12.8497C26.2693 13.5611 26.0613 14.2043 25.6761 14.7795C25.2909 15.3546 24.7747 15.8086 24.1276 16.1416C23.4805 16.4746 22.7563 16.6411 21.9551 16.6411ZM22.4635 13.8941C23.0336 13.8941 23.5267 13.773 23.9427 13.5308C24.3741 13.2735 24.7054 12.9254 24.9365 12.4865C25.1831 12.0324 25.3063 11.5103 25.3063 10.92C25.3063 10.3449 25.1831 9.83784 24.9365 9.39892C24.7054 8.94487 24.3741 8.59676 23.9427 8.35459C23.5267 8.0973 23.0413 7.96865 22.4866 7.96865C21.9165 7.96865 21.4158 8.0973 20.9844 8.35459C20.5683 8.61189 20.2371 8.96 19.9905 9.39892C19.7594 9.83784 19.6438 10.3449 19.6438 10.92C19.6438 11.5103 19.7594 12.0324 19.9905 12.4865C20.2371 12.9254 20.576 13.2735 21.0075 13.5308C21.4389 13.773 21.9242 13.8941 22.4635 13.8941ZM28.1491 16.4141H25.1445V13.4627L25.6299 10.7838L25.1214 8.15027V0H28.1491V16.4141Z" fill="#3E885B"/>
<path d="M35.9816 16.6411C35.1804 16.6411 34.4562 16.4746 33.809 16.1416C33.1619 15.8086 32.6457 15.3546 32.2605 14.7795C31.8753 14.2043 31.6673 13.5611 31.6365 12.8497V8.94486C31.6673 8.23351 31.8753 7.59784 32.2605 7.03784C32.6611 6.4627 33.185 6.01622 33.8322 5.69838C34.4793 5.38054 35.1958 5.22162 35.9816 5.22162C37.0139 5.22162 37.9384 5.47135 38.755 5.97081C39.5717 6.47027 40.2111 7.15135 40.6733 8.01405C41.151 8.87676 41.3898 9.85297 41.3898 10.9427C41.3898 12.0173 41.151 12.9859 40.6733 13.8486C40.2111 14.7114 39.5717 15.3924 38.755 15.8919C37.9384 16.3914 37.0139 16.6411 35.9816 16.6411ZM35.4731 13.8941C36.0278 13.8941 36.5132 13.773 36.9292 13.5308C37.3606 13.2735 37.6919 12.9254 37.923 12.4865C38.1695 12.0324 38.2928 11.5103 38.2928 10.92C38.2928 10.3449 38.1695 9.83784 37.923 9.39892C37.6919 8.94487 37.3606 8.59676 36.9292 8.35459C36.4978 8.0973 36.0047 7.96865 35.45 7.96865C34.8953 7.96865 34.4023 8.0973 33.9708 8.35459C33.5548 8.59676 33.2235 8.94487 32.977 9.39892C32.7459 9.83784 32.6303 10.3449 32.6303 10.92C32.6303 11.5103 32.7459 12.0324 32.977 12.4865C33.2235 12.9254 33.5625 13.2735 33.9939 13.5308C34.4254 13.773 34.9184 13.8941 35.4731 13.8941ZM29.7875 16.4141V0H32.8152V8.15027L32.3068 10.7838L32.7921 13.4627V16.4141H29.7875Z" fill="#3E885B"/>
<path d="M45.5094 16.5049L40.8407 5.44865H44.1226L47.2197 13.8941H46.1103L49.3229 5.44865H52.6279L47.6588 16.4822L45.5094 16.5049ZM42.4123 21L45.8098 13.9395L47.6588 16.4822L45.6249 21H42.4123Z" fill="#3E885B"/>
<path d="M59.0449 16.6411C58.2437 16.6411 57.5195 16.4746 56.8724 16.1416C56.2253 15.8086 55.7091 15.3546 55.3239 14.7795C54.9387 14.2043 54.7307 13.5611 54.6999 12.8497V8.94486C54.7307 8.23351 54.9387 7.59784 55.3239 7.03784C55.7245 6.4627 56.2484 6.01622 56.8955 5.69838C57.5427 5.38054 58.2591 5.22162 59.0449 5.22162C60.0773 5.22162 61.0018 5.47135 61.8184 5.97081C62.635 6.47027 63.2745 7.15135 63.7367 8.01405C64.2144 8.87676 64.4532 9.85297 64.4532 10.9427C64.4532 12.0173 64.2144 12.9859 63.7367 13.8486C63.2745 14.7114 62.635 15.3924 61.8184 15.8919C61.0018 16.3914 60.0773 16.6411 59.0449 16.6411ZM58.5365 13.8941C59.0912 13.8941 59.5765 13.773 59.9925 13.5308C60.424 13.2735 60.7552 12.9254 60.9864 12.4865C61.2329 12.0324 61.3562 11.5103 61.3562 10.92C61.3562 10.3449 61.2329 9.83784 60.9864 9.39892C60.7552 8.94487 60.424 8.59676 59.9925 8.35459C59.5611 8.0973 59.0681 7.96865 58.5134 7.96865C57.9587 7.96865 57.4656 8.0973 57.0342 8.35459C56.6182 8.59676 56.2869 8.94487 56.0404 9.39892C55.8092 9.83784 55.6937 10.3449 55.6937 10.92C55.6937 11.5103 55.8092 12.0324 56.0404 12.4865C56.2869 12.9254 56.6259 13.2735 57.0573 13.5308C57.4887 13.773 57.9818 13.8941 58.5365 13.8941ZM52.8509 16.4141V0H55.8786V8.15027L55.3701 10.7838L55.8555 13.4627V16.4141H52.8509Z" fill="#3E885B"/>
<path d="M65.3982 16.4141V5.44865H68.449V16.4141H65.3982Z" fill="#3E885B"/>
<path d="M74.806 16.6411C73.7736 16.6411 72.8491 16.3914 72.0325 15.8919C71.2159 15.3924 70.5687 14.7114 70.0911 13.8486C69.6288 12.9859 69.3977 12.0173 69.3977 10.9427C69.3977 9.85297 69.6288 8.87676 70.0911 8.01405C70.5687 7.15135 71.2082 6.47027 72.0094 5.97081C72.826 5.47135 73.7582 5.22162 74.806 5.22162C75.6072 5.22162 76.3236 5.38054 76.9554 5.69838C77.6025 6.01622 78.1187 6.4627 78.5039 7.03784C78.9045 7.59784 79.1202 8.23351 79.151 8.94486V12.8497C79.1202 13.5611 78.9122 14.2043 78.527 14.7795C78.1418 15.3546 77.6256 15.8086 76.9785 16.1416C76.3314 16.4746 75.6072 16.6411 74.806 16.6411ZM75.3144 13.8941C75.8845 13.8941 76.3776 13.773 76.7936 13.5308C77.225 13.2735 77.5563 12.9254 77.7874 12.4865C78.0339 12.0324 78.1572 11.5103 78.1572 10.92C78.1572 10.3449 78.0339 9.83784 77.7874 9.39892C77.5563 8.94487 77.225 8.59676 76.7936 8.35459C76.3776 8.0973 75.8922 7.96865 75.3375 7.96865C74.7674 7.96865 74.2667 8.0973 73.8352 8.35459C73.4192 8.61189 73.088 8.96 72.8414 9.39892C72.6103 9.83784 72.4947 10.3449 72.4947 10.92C72.4947 11.5103 72.6103 12.0324 72.8414 12.4865C73.088 12.9254 73.4269 13.2735 73.8584 13.5308C74.2898 13.773 74.7751 13.8941 75.3144 13.8941ZM81 16.4141H77.9954V13.4627L78.4808 10.7838L77.9723 8.15027V0H81V16.4141Z" fill="#3E885B"/>
</svg>
